<mxfile host="app.diagrams.net" modified="2024-06-03T16:36:22.421Z" agent="Mozilla/5.0 (Windows NT 10.0; Win64; x64) AppleWebKit/537.36 (KHTML, like Gecko) Chrome/125.0.0.0 Safari/537.36 Edg/125.0.0.0" etag="p045RBSmaHaNWbrOl4a4" version="24.4.13" type="github">
  <diagram name="Page-1" id="HcHv-7Lt61dC2-ovTIpF">
    <mxGraphModel dx="2019" dy="1193" grid="1" gridSize="10" guides="1" tooltips="1" connect="1" arrows="1" fold="1" page="1" pageScale="1" pageWidth="850" pageHeight="1100" math="0" shadow="0">
      <root>
        <mxCell id="0" />
        <mxCell id="1" parent="0" />
        <mxCell id="Ze1HOBsaGdbZozVng9pM-1" value="" style="edgeStyle=orthogonalEdgeStyle;rounded=0;orthogonalLoop=1;jettySize=auto;html=1;fontFamily=JetBrains Mono;" edge="1" parent="1" source="Ze1HOBsaGdbZozVng9pM-3" target="Ze1HOBsaGdbZozVng9pM-9">
          <mxGeometry relative="1" as="geometry" />
        </mxCell>
        <mxCell id="Ze1HOBsaGdbZozVng9pM-2" value="Provides Credentials" style="edgeLabel;html=1;align=center;verticalAlign=middle;resizable=0;points=[];fontFamily=JetBrains Mono;labelBackgroundColor=none;" vertex="1" connectable="0" parent="Ze1HOBsaGdbZozVng9pM-1">
          <mxGeometry x="0.2162" y="2" relative="1" as="geometry">
            <mxPoint x="-19" y="17" as="offset" />
          </mxGeometry>
        </mxCell>
        <mxCell id="Ze1HOBsaGdbZozVng9pM-3" value="User" style="sketch=0;pointerEvents=1;shadow=0;dashed=0;html=1;strokeColor=none;fillColor=#505050;labelPosition=center;verticalLabelPosition=bottom;verticalAlign=top;outlineConnect=0;align=center;shape=mxgraph.office.users.user;fontFamily=JetBrains Mono;" vertex="1" parent="1">
          <mxGeometry x="110" y="440" width="46" height="50" as="geometry" />
        </mxCell>
        <mxCell id="Ze1HOBsaGdbZozVng9pM-4" value="" style="edgeStyle=orthogonalEdgeStyle;rounded=0;orthogonalLoop=1;jettySize=auto;html=1;fontFamily=JetBrains Mono;" edge="1" parent="1" target="Ze1HOBsaGdbZozVng9pM-10">
          <mxGeometry relative="1" as="geometry">
            <mxPoint x="374" y="540" as="sourcePoint" />
          </mxGeometry>
        </mxCell>
        <mxCell id="Ze1HOBsaGdbZozVng9pM-5" style="edgeStyle=orthogonalEdgeStyle;rounded=0;orthogonalLoop=1;jettySize=auto;html=1;fontFamily=JetBrains Mono;" edge="1" parent="1" source="Ze1HOBsaGdbZozVng9pM-9" target="Ze1HOBsaGdbZozVng9pM-12">
          <mxGeometry relative="1" as="geometry" />
        </mxCell>
        <mxCell id="Ze1HOBsaGdbZozVng9pM-6" value="&lt;font face=&quot;JetBrains Mono&quot;&gt;Approved?&lt;/font&gt;" style="edgeLabel;html=1;align=center;verticalAlign=middle;resizable=0;points=[];labelBackgroundColor=none;" vertex="1" connectable="0" parent="Ze1HOBsaGdbZozVng9pM-5">
          <mxGeometry x="0.7519" y="1" relative="1" as="geometry">
            <mxPoint x="-58" y="16" as="offset" />
          </mxGeometry>
        </mxCell>
        <mxCell id="Ze1HOBsaGdbZozVng9pM-7" style="edgeStyle=orthogonalEdgeStyle;rounded=0;orthogonalLoop=1;jettySize=auto;html=1;fontFamily=JetBrains Mono;" edge="1" parent="1" source="Ze1HOBsaGdbZozVng9pM-9" target="Ze1HOBsaGdbZozVng9pM-13">
          <mxGeometry relative="1" as="geometry">
            <Array as="points">
              <mxPoint x="520" y="465" />
              <mxPoint x="520" y="357" />
            </Array>
          </mxGeometry>
        </mxCell>
        <mxCell id="Ze1HOBsaGdbZozVng9pM-8" style="edgeStyle=orthogonalEdgeStyle;rounded=0;orthogonalLoop=1;jettySize=auto;html=1;fontFamily=JetBrains Mono;" edge="1" parent="1" source="Ze1HOBsaGdbZozVng9pM-9" target="Ze1HOBsaGdbZozVng9pM-11">
          <mxGeometry relative="1" as="geometry">
            <Array as="points">
              <mxPoint x="520" y="465" />
              <mxPoint x="520" y="568" />
            </Array>
          </mxGeometry>
        </mxCell>
        <mxCell id="Ze1HOBsaGdbZozVng9pM-9" value="Authentication Process" style="sketch=0;pointerEvents=1;shadow=0;dashed=0;html=1;strokeColor=none;fillColor=#505050;labelPosition=center;verticalLabelPosition=bottom;outlineConnect=0;verticalAlign=top;align=center;shape=mxgraph.office.clouds.cloud_service_request;fontFamily=JetBrains Mono;" vertex="1" parent="1">
          <mxGeometry x="323" y="425" width="102" height="80" as="geometry" />
        </mxCell>
        <mxCell id="Ze1HOBsaGdbZozVng9pM-10" value="User Database" style="sketch=0;shadow=0;dashed=0;html=1;strokeColor=none;fillColor=#505050;labelPosition=center;verticalLabelPosition=bottom;verticalAlign=top;outlineConnect=0;align=center;shape=mxgraph.office.databases.address_book_store;fontFamily=JetBrains Mono;" vertex="1" parent="1">
          <mxGeometry x="349" y="620" width="50" height="54" as="geometry" />
        </mxCell>
        <mxCell id="Ze1HOBsaGdbZozVng9pM-11" value="Services" style="sketch=0;pointerEvents=1;shadow=0;dashed=0;html=1;strokeColor=none;fillColor=#505050;labelPosition=center;verticalLabelPosition=bottom;verticalAlign=top;outlineConnect=0;align=center;shape=mxgraph.office.services.web_services;fontFamily=JetBrains Mono;" vertex="1" parent="1">
          <mxGeometry x="552" y="540" width="60" height="56" as="geometry" />
        </mxCell>
        <mxCell id="Ze1HOBsaGdbZozVng9pM-12" value="Devices" style="sketch=0;pointerEvents=1;shadow=0;dashed=0;html=1;strokeColor=none;fillColor=#505050;labelPosition=center;verticalLabelPosition=bottom;verticalAlign=top;outlineConnect=0;align=center;shape=mxgraph.office.servers.scom;fontFamily=JetBrains Mono;" vertex="1" parent="1">
          <mxGeometry x="554" y="438.5" width="56" height="53" as="geometry" />
        </mxCell>
        <mxCell id="Ze1HOBsaGdbZozVng9pM-13" value="Files" style="sketch=0;pointerEvents=1;shadow=0;dashed=0;html=1;strokeColor=none;fillColor=#505050;labelPosition=center;verticalLabelPosition=bottom;verticalAlign=top;outlineConnect=0;align=center;shape=mxgraph.office.concepts.folders;fontFamily=JetBrains Mono;" vertex="1" parent="1">
          <mxGeometry x="552" y="330" width="57" height="53" as="geometry" />
        </mxCell>
        <mxCell id="Ze1HOBsaGdbZozVng9pM-14" value="" style="verticalLabelPosition=bottom;verticalAlign=top;html=1;shape=mxgraph.basic.tick;fontFamily=JetBrains Mono;" vertex="1" parent="1">
          <mxGeometry x="460" y="400" width="40" height="40" as="geometry" />
        </mxCell>
        <mxCell id="Ze1HOBsaGdbZozVng9pM-15" value="" style="verticalLabelPosition=bottom;verticalAlign=top;html=1;shape=mxgraph.basic.x;fontFamily=JetBrains Mono;" vertex="1" parent="1">
          <mxGeometry x="460" y="500" width="40" height="40" as="geometry" />
        </mxCell>
      </root>
    </mxGraphModel>
  </diagram>
</mxfile>
